<mxfile host="app.diagrams.net" modified="2024-05-04T07:25:17.541Z" agent="Mozilla/5.0 (Windows NT 10.0; Win64; x64) AppleWebKit/537.36 (KHTML, like Gecko) Chrome/121.0.0.0 Safari/537.36 OPR/107.0.0.0" etag="VMspiLfPIbMeUGHrRWJl" version="24.3.1" type="device">
  <diagram name="Страница 1" id="vaVnpeOQBWc_vJTZJ6nx">
    <mxGraphModel dx="3363" dy="3002" grid="1" gridSize="10" guides="1" tooltips="1" connect="1" arrows="1" fold="1" page="1" pageScale="1" pageWidth="827" pageHeight="1169" math="0" shadow="0">
      <root>
        <mxCell id="0" />
        <mxCell id="1" parent="0" />
        <mxCell id="6Py6FoOGQPI_xnzbxPzp-1" value="Z1" style="ellipse;whiteSpace=wrap;html=1;aspect=fixed;" parent="1" vertex="1">
          <mxGeometry x="50" y="100" width="30" height="30" as="geometry" />
        </mxCell>
        <mxCell id="6Py6FoOGQPI_xnzbxPzp-2" value="Z2" style="ellipse;whiteSpace=wrap;html=1;aspect=fixed;" parent="1" vertex="1">
          <mxGeometry x="130" y="100" width="30" height="30" as="geometry" />
        </mxCell>
        <mxCell id="6Py6FoOGQPI_xnzbxPzp-3" value="" style="endArrow=classic;html=1;rounded=0;exitX=1;exitY=0.5;exitDx=0;exitDy=0;entryX=0;entryY=0.5;entryDx=0;entryDy=0;" parent="1" source="6Py6FoOGQPI_xnzbxPzp-1" target="6Py6FoOGQPI_xnzbxPzp-2" edge="1">
          <mxGeometry width="50" height="50" relative="1" as="geometry">
            <mxPoint x="90" y="290" as="sourcePoint" />
            <mxPoint x="140" y="240" as="targetPoint" />
          </mxGeometry>
        </mxCell>
        <mxCell id="6Py6FoOGQPI_xnzbxPzp-4" value="Z3" style="ellipse;whiteSpace=wrap;html=1;aspect=fixed;" parent="1" vertex="1">
          <mxGeometry x="210" y="100" width="30" height="30" as="geometry" />
        </mxCell>
        <mxCell id="6Py6FoOGQPI_xnzbxPzp-5" value="" style="endArrow=classic;html=1;rounded=0;exitX=1;exitY=0.5;exitDx=0;exitDy=0;entryX=0;entryY=0.5;entryDx=0;entryDy=0;" parent="1" source="6Py6FoOGQPI_xnzbxPzp-2" target="6Py6FoOGQPI_xnzbxPzp-4" edge="1">
          <mxGeometry width="50" height="50" relative="1" as="geometry">
            <mxPoint x="130" y="290" as="sourcePoint" />
            <mxPoint x="180" y="240" as="targetPoint" />
          </mxGeometry>
        </mxCell>
        <mxCell id="6Py6FoOGQPI_xnzbxPzp-6" value="Z15" style="ellipse;whiteSpace=wrap;html=1;aspect=fixed;" parent="1" vertex="1">
          <mxGeometry x="100" y="230" width="30" height="30" as="geometry" />
        </mxCell>
        <mxCell id="6Py6FoOGQPI_xnzbxPzp-9" value="" style="endArrow=none;dashed=1;html=1;dashPattern=1 3;strokeWidth=2;rounded=0;entryX=0.5;entryY=1;entryDx=0;entryDy=0;exitX=0.5;exitY=0;exitDx=0;exitDy=0;" parent="1" source="6Py6FoOGQPI_xnzbxPzp-6" target="6Py6FoOGQPI_xnzbxPzp-4" edge="1">
          <mxGeometry width="50" height="50" relative="1" as="geometry">
            <mxPoint x="130" y="290" as="sourcePoint" />
            <mxPoint x="180" y="240" as="targetPoint" />
          </mxGeometry>
        </mxCell>
        <mxCell id="6Py6FoOGQPI_xnzbxPzp-10" value="Z4" style="ellipse;whiteSpace=wrap;html=1;aspect=fixed;" parent="1" vertex="1">
          <mxGeometry x="290" y="70" width="30" height="30" as="geometry" />
        </mxCell>
        <mxCell id="6Py6FoOGQPI_xnzbxPzp-11" value="" style="endArrow=classic;html=1;rounded=0;exitX=0.5;exitY=0;exitDx=0;exitDy=0;entryX=0;entryY=0.5;entryDx=0;entryDy=0;" parent="1" source="6Py6FoOGQPI_xnzbxPzp-2" target="6Py6FoOGQPI_xnzbxPzp-10" edge="1">
          <mxGeometry width="50" height="50" relative="1" as="geometry">
            <mxPoint x="170" y="240" as="sourcePoint" />
            <mxPoint x="220" y="190" as="targetPoint" />
          </mxGeometry>
        </mxCell>
        <mxCell id="6Py6FoOGQPI_xnzbxPzp-13" value="Z5" style="ellipse;whiteSpace=wrap;html=1;aspect=fixed;" parent="1" vertex="1">
          <mxGeometry x="350" y="100" width="30" height="30" as="geometry" />
        </mxCell>
        <mxCell id="6Py6FoOGQPI_xnzbxPzp-15" value="" style="endArrow=none;dashed=1;html=1;dashPattern=1 3;strokeWidth=2;rounded=0;exitX=0.5;exitY=0;exitDx=0;exitDy=0;entryX=0.5;entryY=1;entryDx=0;entryDy=0;" parent="1" source="6Py6FoOGQPI_xnzbxPzp-6" target="6Py6FoOGQPI_xnzbxPzp-13" edge="1">
          <mxGeometry width="50" height="50" relative="1" as="geometry">
            <mxPoint x="210" y="200" as="sourcePoint" />
            <mxPoint x="260" y="150" as="targetPoint" />
          </mxGeometry>
        </mxCell>
        <mxCell id="6Py6FoOGQPI_xnzbxPzp-16" value="Z6" style="ellipse;whiteSpace=wrap;html=1;aspect=fixed;" parent="1" vertex="1">
          <mxGeometry x="413.5" y="100" width="30" height="30" as="geometry" />
        </mxCell>
        <mxCell id="6Py6FoOGQPI_xnzbxPzp-17" value="" style="endArrow=classic;html=1;rounded=0;exitX=1;exitY=0.5;exitDx=0;exitDy=0;entryX=0.5;entryY=0;entryDx=0;entryDy=0;" parent="1" source="6Py6FoOGQPI_xnzbxPzp-10" target="6Py6FoOGQPI_xnzbxPzp-16" edge="1">
          <mxGeometry width="50" height="50" relative="1" as="geometry">
            <mxPoint x="280" y="200" as="sourcePoint" />
            <mxPoint x="330" y="150" as="targetPoint" />
          </mxGeometry>
        </mxCell>
        <mxCell id="6Py6FoOGQPI_xnzbxPzp-18" value="" style="endArrow=classic;html=1;rounded=0;exitX=1;exitY=0.5;exitDx=0;exitDy=0;entryX=0;entryY=0.5;entryDx=0;entryDy=0;" parent="1" source="6Py6FoOGQPI_xnzbxPzp-13" target="6Py6FoOGQPI_xnzbxPzp-16" edge="1">
          <mxGeometry width="50" height="50" relative="1" as="geometry">
            <mxPoint x="280" y="200" as="sourcePoint" />
            <mxPoint x="330" y="150" as="targetPoint" />
          </mxGeometry>
        </mxCell>
        <mxCell id="6Py6FoOGQPI_xnzbxPzp-19" value="Z16" style="ellipse;whiteSpace=wrap;html=1;aspect=fixed;" parent="1" vertex="1">
          <mxGeometry x="250" y="230" width="30" height="30" as="geometry" />
        </mxCell>
        <mxCell id="6Py6FoOGQPI_xnzbxPzp-20" value="" style="endArrow=none;dashed=1;html=1;dashPattern=1 3;strokeWidth=2;rounded=0;exitX=0.5;exitY=0;exitDx=0;exitDy=0;entryX=0.5;entryY=1;entryDx=0;entryDy=0;" parent="1" source="6Py6FoOGQPI_xnzbxPzp-19" target="6Py6FoOGQPI_xnzbxPzp-16" edge="1">
          <mxGeometry width="50" height="50" relative="1" as="geometry">
            <mxPoint x="260" y="200" as="sourcePoint" />
            <mxPoint x="310" y="150" as="targetPoint" />
          </mxGeometry>
        </mxCell>
        <mxCell id="6Py6FoOGQPI_xnzbxPzp-22" value="Z7" style="ellipse;whiteSpace=wrap;html=1;aspect=fixed;" parent="1" vertex="1">
          <mxGeometry x="450" y="10" width="30" height="30" as="geometry" />
        </mxCell>
        <mxCell id="6Py6FoOGQPI_xnzbxPzp-23" value="" style="endArrow=classic;html=1;rounded=0;exitX=1;exitY=0.5;exitDx=0;exitDy=0;entryX=0.5;entryY=0;entryDx=0;entryDy=0;" parent="1" source="6Py6FoOGQPI_xnzbxPzp-10" target="6Py6FoOGQPI_xnzbxPzp-22" edge="1">
          <mxGeometry width="50" height="50" relative="1" as="geometry">
            <mxPoint x="380" y="170" as="sourcePoint" />
            <mxPoint x="430" y="120" as="targetPoint" />
          </mxGeometry>
        </mxCell>
        <mxCell id="6Py6FoOGQPI_xnzbxPzp-24" value="" style="endArrow=classic;html=1;rounded=0;exitX=0.5;exitY=0;exitDx=0;exitDy=0;entryX=0;entryY=0;entryDx=0;entryDy=0;" parent="1" source="6Py6FoOGQPI_xnzbxPzp-4" target="6Py6FoOGQPI_xnzbxPzp-22" edge="1">
          <mxGeometry width="50" height="50" relative="1" as="geometry">
            <mxPoint x="380" y="170" as="sourcePoint" />
            <mxPoint x="430" y="120" as="targetPoint" />
          </mxGeometry>
        </mxCell>
        <mxCell id="6Py6FoOGQPI_xnzbxPzp-25" value="" style="endArrow=none;dashed=1;html=1;dashPattern=1 3;strokeWidth=2;rounded=0;exitX=0.5;exitY=0;exitDx=0;exitDy=0;entryX=0.5;entryY=1;entryDx=0;entryDy=0;" parent="1" source="6Py6FoOGQPI_xnzbxPzp-6" target="6Py6FoOGQPI_xnzbxPzp-22" edge="1">
          <mxGeometry width="50" height="50" relative="1" as="geometry">
            <mxPoint x="250" y="140" as="sourcePoint" />
            <mxPoint x="300" y="90" as="targetPoint" />
          </mxGeometry>
        </mxCell>
        <mxCell id="6Py6FoOGQPI_xnzbxPzp-27" value="Z8" style="ellipse;whiteSpace=wrap;html=1;aspect=fixed;" parent="1" vertex="1">
          <mxGeometry x="270" y="-20" width="30" height="30" as="geometry" />
        </mxCell>
        <mxCell id="6Py6FoOGQPI_xnzbxPzp-28" value="" style="endArrow=classic;html=1;rounded=0;exitX=0.5;exitY=0;exitDx=0;exitDy=0;entryX=0.5;entryY=1;entryDx=0;entryDy=0;" parent="1" source="6Py6FoOGQPI_xnzbxPzp-4" target="6Py6FoOGQPI_xnzbxPzp-27" edge="1">
          <mxGeometry width="50" height="50" relative="1" as="geometry">
            <mxPoint x="340" y="150" as="sourcePoint" />
            <mxPoint x="390" y="100" as="targetPoint" />
          </mxGeometry>
        </mxCell>
        <mxCell id="6Py6FoOGQPI_xnzbxPzp-29" value="" style="endArrow=classic;html=1;rounded=0;exitX=0.5;exitY=0;exitDx=0;exitDy=0;entryX=0.5;entryY=1;entryDx=0;entryDy=0;" parent="1" source="6Py6FoOGQPI_xnzbxPzp-10" target="6Py6FoOGQPI_xnzbxPzp-27" edge="1">
          <mxGeometry width="50" height="50" relative="1" as="geometry">
            <mxPoint x="340" y="150" as="sourcePoint" />
            <mxPoint x="390" y="100" as="targetPoint" />
          </mxGeometry>
        </mxCell>
        <mxCell id="6Py6FoOGQPI_xnzbxPzp-30" value="" style="endArrow=none;dashed=1;html=1;dashPattern=1 3;strokeWidth=2;rounded=0;exitX=0.5;exitY=0;exitDx=0;exitDy=0;entryX=0;entryY=0.5;entryDx=0;entryDy=0;" parent="1" source="6Py6FoOGQPI_xnzbxPzp-6" target="6Py6FoOGQPI_xnzbxPzp-27" edge="1">
          <mxGeometry width="50" height="50" relative="1" as="geometry">
            <mxPoint x="260" y="150" as="sourcePoint" />
            <mxPoint x="310" y="100" as="targetPoint" />
          </mxGeometry>
        </mxCell>
        <mxCell id="6Py6FoOGQPI_xnzbxPzp-32" value="Z9" style="ellipse;whiteSpace=wrap;html=1;aspect=fixed;" parent="1" vertex="1">
          <mxGeometry x="540" y="70" width="30" height="30" as="geometry" />
        </mxCell>
        <mxCell id="6Py6FoOGQPI_xnzbxPzp-33" value="" style="endArrow=classic;html=1;rounded=0;exitX=1;exitY=0.5;exitDx=0;exitDy=0;entryX=0;entryY=0.5;entryDx=0;entryDy=0;" parent="1" source="6Py6FoOGQPI_xnzbxPzp-16" target="6Py6FoOGQPI_xnzbxPzp-32" edge="1">
          <mxGeometry width="50" height="50" relative="1" as="geometry">
            <mxPoint x="370" y="90" as="sourcePoint" />
            <mxPoint x="420" y="40" as="targetPoint" />
          </mxGeometry>
        </mxCell>
        <mxCell id="6Py6FoOGQPI_xnzbxPzp-34" value="" style="endArrow=classic;html=1;rounded=0;exitX=1;exitY=0.5;exitDx=0;exitDy=0;entryX=0.5;entryY=0;entryDx=0;entryDy=0;" parent="1" source="6Py6FoOGQPI_xnzbxPzp-22" target="6Py6FoOGQPI_xnzbxPzp-32" edge="1">
          <mxGeometry width="50" height="50" relative="1" as="geometry">
            <mxPoint x="370" y="90" as="sourcePoint" />
            <mxPoint x="420" y="40" as="targetPoint" />
          </mxGeometry>
        </mxCell>
        <mxCell id="6Py6FoOGQPI_xnzbxPzp-35" value="" style="endArrow=classic;html=1;rounded=0;exitX=1;exitY=0.5;exitDx=0;exitDy=0;entryX=0;entryY=0.5;entryDx=0;entryDy=0;" parent="1" source="6Py6FoOGQPI_xnzbxPzp-27" target="6Py6FoOGQPI_xnzbxPzp-32" edge="1">
          <mxGeometry width="50" height="50" relative="1" as="geometry">
            <mxPoint x="360" y="90" as="sourcePoint" />
            <mxPoint x="410" y="40" as="targetPoint" />
          </mxGeometry>
        </mxCell>
        <mxCell id="6Py6FoOGQPI_xnzbxPzp-38" value="Z10" style="ellipse;whiteSpace=wrap;html=1;aspect=fixed;" parent="1" vertex="1">
          <mxGeometry x="620" width="30" height="30" as="geometry" />
        </mxCell>
        <mxCell id="6Py6FoOGQPI_xnzbxPzp-40" value="" style="endArrow=classic;html=1;rounded=0;exitX=1;exitY=0.5;exitDx=0;exitDy=0;entryX=0.5;entryY=1;entryDx=0;entryDy=0;" parent="1" source="6Py6FoOGQPI_xnzbxPzp-16" target="6Py6FoOGQPI_xnzbxPzp-38" edge="1">
          <mxGeometry width="50" height="50" relative="1" as="geometry">
            <mxPoint x="480" y="90" as="sourcePoint" />
            <mxPoint x="530" y="40" as="targetPoint" />
          </mxGeometry>
        </mxCell>
        <mxCell id="6Py6FoOGQPI_xnzbxPzp-41" value="" style="endArrow=classic;html=1;rounded=0;exitX=1;exitY=0.5;exitDx=0;exitDy=0;entryX=0;entryY=0.5;entryDx=0;entryDy=0;" parent="1" source="6Py6FoOGQPI_xnzbxPzp-22" target="6Py6FoOGQPI_xnzbxPzp-38" edge="1">
          <mxGeometry width="50" height="50" relative="1" as="geometry">
            <mxPoint x="480" y="90" as="sourcePoint" />
            <mxPoint x="530" y="40" as="targetPoint" />
          </mxGeometry>
        </mxCell>
        <mxCell id="6Py6FoOGQPI_xnzbxPzp-42" value="" style="endArrow=classic;html=1;rounded=0;exitX=0.5;exitY=0;exitDx=0;exitDy=0;entryX=0.5;entryY=0;entryDx=0;entryDy=0;" parent="1" source="6Py6FoOGQPI_xnzbxPzp-27" target="6Py6FoOGQPI_xnzbxPzp-38" edge="1">
          <mxGeometry width="50" height="50" relative="1" as="geometry">
            <mxPoint x="480" y="90" as="sourcePoint" />
            <mxPoint x="530" y="40" as="targetPoint" />
          </mxGeometry>
        </mxCell>
        <mxCell id="6Py6FoOGQPI_xnzbxPzp-44" value="Z11" style="ellipse;whiteSpace=wrap;html=1;aspect=fixed;" parent="1" vertex="1">
          <mxGeometry x="720" y="60" width="30" height="30" as="geometry" />
        </mxCell>
        <mxCell id="6Py6FoOGQPI_xnzbxPzp-45" value="" style="endArrow=classic;html=1;rounded=0;exitX=1;exitY=0.5;exitDx=0;exitDy=0;entryX=0;entryY=0.5;entryDx=0;entryDy=0;" parent="1" source="6Py6FoOGQPI_xnzbxPzp-22" target="6Py6FoOGQPI_xnzbxPzp-44" edge="1">
          <mxGeometry width="50" height="50" relative="1" as="geometry">
            <mxPoint x="590" y="140" as="sourcePoint" />
            <mxPoint x="640" y="90" as="targetPoint" />
          </mxGeometry>
        </mxCell>
        <mxCell id="6Py6FoOGQPI_xnzbxPzp-46" value="" style="endArrow=classic;html=1;rounded=0;exitX=1;exitY=0.5;exitDx=0;exitDy=0;entryX=0;entryY=0.5;entryDx=0;entryDy=0;" parent="1" source="6Py6FoOGQPI_xnzbxPzp-16" target="6Py6FoOGQPI_xnzbxPzp-44" edge="1">
          <mxGeometry width="50" height="50" relative="1" as="geometry">
            <mxPoint x="590" y="140" as="sourcePoint" />
            <mxPoint x="640" y="90" as="targetPoint" />
          </mxGeometry>
        </mxCell>
        <mxCell id="6Py6FoOGQPI_xnzbxPzp-47" value="" style="endArrow=classic;html=1;rounded=0;exitX=1;exitY=0.5;exitDx=0;exitDy=0;entryX=0;entryY=0.5;entryDx=0;entryDy=0;" parent="1" source="6Py6FoOGQPI_xnzbxPzp-32" target="6Py6FoOGQPI_xnzbxPzp-44" edge="1">
          <mxGeometry width="50" height="50" relative="1" as="geometry">
            <mxPoint x="610" y="140" as="sourcePoint" />
            <mxPoint x="660" y="90" as="targetPoint" />
          </mxGeometry>
        </mxCell>
        <mxCell id="6Py6FoOGQPI_xnzbxPzp-48" value="" style="endArrow=classic;html=1;rounded=0;exitX=1;exitY=0.5;exitDx=0;exitDy=0;entryX=0;entryY=0.5;entryDx=0;entryDy=0;" parent="1" source="6Py6FoOGQPI_xnzbxPzp-27" target="6Py6FoOGQPI_xnzbxPzp-44" edge="1">
          <mxGeometry width="50" height="50" relative="1" as="geometry">
            <mxPoint x="480" y="100" as="sourcePoint" />
            <mxPoint x="530" y="50" as="targetPoint" />
          </mxGeometry>
        </mxCell>
        <mxCell id="6Py6FoOGQPI_xnzbxPzp-49" value="Z12" style="ellipse;whiteSpace=wrap;html=1;aspect=fixed;" parent="1" vertex="1">
          <mxGeometry x="740" y="150" width="30" height="30" as="geometry" />
        </mxCell>
        <mxCell id="6Py6FoOGQPI_xnzbxPzp-50" value="" style="endArrow=classic;html=1;rounded=0;exitX=1;exitY=0.5;exitDx=0;exitDy=0;entryX=0;entryY=0.5;entryDx=0;entryDy=0;" parent="1" source="6Py6FoOGQPI_xnzbxPzp-32" target="6Py6FoOGQPI_xnzbxPzp-49" edge="1">
          <mxGeometry width="50" height="50" relative="1" as="geometry">
            <mxPoint x="690" y="130" as="sourcePoint" />
            <mxPoint x="740" y="80" as="targetPoint" />
          </mxGeometry>
        </mxCell>
        <mxCell id="6Py6FoOGQPI_xnzbxPzp-51" value="" style="endArrow=classic;html=1;rounded=0;exitX=1;exitY=0.5;exitDx=0;exitDy=0;entryX=0;entryY=0;entryDx=0;entryDy=0;" parent="1" source="6Py6FoOGQPI_xnzbxPzp-44" target="6Py6FoOGQPI_xnzbxPzp-49" edge="1">
          <mxGeometry width="50" height="50" relative="1" as="geometry">
            <mxPoint x="690" y="130" as="sourcePoint" />
            <mxPoint x="740" y="80" as="targetPoint" />
          </mxGeometry>
        </mxCell>
        <mxCell id="6Py6FoOGQPI_xnzbxPzp-52" value="Z13" style="ellipse;whiteSpace=wrap;html=1;aspect=fixed;" parent="1" vertex="1">
          <mxGeometry x="840" y="100" width="30" height="30" as="geometry" />
        </mxCell>
        <mxCell id="6Py6FoOGQPI_xnzbxPzp-53" value="" style="endArrow=classic;html=1;rounded=0;exitX=1;exitY=0.5;exitDx=0;exitDy=0;entryX=0;entryY=0.5;entryDx=0;entryDy=0;" parent="1" source="6Py6FoOGQPI_xnzbxPzp-32" target="6Py6FoOGQPI_xnzbxPzp-52" edge="1">
          <mxGeometry width="50" height="50" relative="1" as="geometry">
            <mxPoint x="710" y="70" as="sourcePoint" />
            <mxPoint x="760" y="20" as="targetPoint" />
          </mxGeometry>
        </mxCell>
        <mxCell id="6Py6FoOGQPI_xnzbxPzp-54" value="" style="endArrow=classic;html=1;rounded=0;exitX=1;exitY=0.5;exitDx=0;exitDy=0;entryX=0.5;entryY=0;entryDx=0;entryDy=0;" parent="1" source="6Py6FoOGQPI_xnzbxPzp-38" target="6Py6FoOGQPI_xnzbxPzp-52" edge="1">
          <mxGeometry width="50" height="50" relative="1" as="geometry">
            <mxPoint x="710" y="70" as="sourcePoint" />
            <mxPoint x="760" y="20" as="targetPoint" />
          </mxGeometry>
        </mxCell>
        <mxCell id="6Py6FoOGQPI_xnzbxPzp-55" value="" style="endArrow=classic;html=1;rounded=0;exitX=1;exitY=0.5;exitDx=0;exitDy=0;entryX=0.5;entryY=1;entryDx=0;entryDy=0;" parent="1" source="6Py6FoOGQPI_xnzbxPzp-49" target="6Py6FoOGQPI_xnzbxPzp-52" edge="1">
          <mxGeometry width="50" height="50" relative="1" as="geometry">
            <mxPoint x="710" y="70" as="sourcePoint" />
            <mxPoint x="760" y="20" as="targetPoint" />
          </mxGeometry>
        </mxCell>
        <mxCell id="6Py6FoOGQPI_xnzbxPzp-56" value="" style="endArrow=classic;html=1;rounded=0;exitX=1;exitY=0.5;exitDx=0;exitDy=0;entryX=0;entryY=0.5;entryDx=0;entryDy=0;" parent="1" source="6Py6FoOGQPI_xnzbxPzp-44" target="6Py6FoOGQPI_xnzbxPzp-52" edge="1">
          <mxGeometry width="50" height="50" relative="1" as="geometry">
            <mxPoint x="710" y="70" as="sourcePoint" />
            <mxPoint x="760" y="20" as="targetPoint" />
          </mxGeometry>
        </mxCell>
        <mxCell id="6Py6FoOGQPI_xnzbxPzp-57" value="Z14" style="ellipse;whiteSpace=wrap;html=1;aspect=fixed;" parent="1" vertex="1">
          <mxGeometry x="920" y="100" width="30" height="30" as="geometry" />
        </mxCell>
        <mxCell id="6Py6FoOGQPI_xnzbxPzp-58" value="" style="endArrow=classic;html=1;rounded=0;exitX=1;exitY=0.5;exitDx=0;exitDy=0;entryX=0;entryY=0.5;entryDx=0;entryDy=0;" parent="1" source="6Py6FoOGQPI_xnzbxPzp-52" target="6Py6FoOGQPI_xnzbxPzp-57" edge="1">
          <mxGeometry width="50" height="50" relative="1" as="geometry">
            <mxPoint x="820" y="70" as="sourcePoint" />
            <mxPoint x="870" y="20" as="targetPoint" />
          </mxGeometry>
        </mxCell>
        <mxCell id="6Py6FoOGQPI_xnzbxPzp-60" value="" style="endArrow=none;dashed=1;html=1;dashPattern=1 3;strokeWidth=2;rounded=0;exitX=0.5;exitY=1;exitDx=0;exitDy=0;entryX=0;entryY=0;entryDx=0;entryDy=0;" parent="1" source="6Py6FoOGQPI_xnzbxPzp-1" target="6Py6FoOGQPI_xnzbxPzp-6" edge="1">
          <mxGeometry width="50" height="50" relative="1" as="geometry">
            <mxPoint x="240" y="20" as="sourcePoint" />
            <mxPoint x="290" y="-30" as="targetPoint" />
          </mxGeometry>
        </mxCell>
        <mxCell id="6Py6FoOGQPI_xnzbxPzp-62" value="" style="endArrow=none;dashed=1;html=1;dashPattern=1 3;strokeWidth=2;rounded=0;entryX=0.5;entryY=1;entryDx=0;entryDy=0;exitX=0.5;exitY=0;exitDx=0;exitDy=0;" parent="1" source="6Py6FoOGQPI_xnzbxPzp-19" target="6Py6FoOGQPI_xnzbxPzp-1" edge="1">
          <mxGeometry width="50" height="50" relative="1" as="geometry">
            <mxPoint x="170" y="130" as="sourcePoint" />
            <mxPoint x="220" y="80" as="targetPoint" />
          </mxGeometry>
        </mxCell>
        <mxCell id="GXxP0L6E-gwaG_Zp7ALa-3" value="" style="ellipse;whiteSpace=wrap;html=1;" parent="1" vertex="1">
          <mxGeometry x="490" y="330" width="40" height="20" as="geometry" />
        </mxCell>
        <mxCell id="GXxP0L6E-gwaG_Zp7ALa-4" value="0" style="text;html=1;align=center;verticalAlign=middle;whiteSpace=wrap;rounded=0;" parent="1" vertex="1">
          <mxGeometry x="495" y="335" width="30" height="10" as="geometry" />
        </mxCell>
        <mxCell id="GXxP0L6E-gwaG_Zp7ALa-6" value="" style="ellipse;whiteSpace=wrap;html=1;" parent="1" vertex="1">
          <mxGeometry x="600" y="330" width="40" height="20" as="geometry" />
        </mxCell>
        <mxCell id="GXxP0L6E-gwaG_Zp7ALa-7" value="1" style="text;html=1;align=center;verticalAlign=middle;whiteSpace=wrap;rounded=0;" parent="1" vertex="1">
          <mxGeometry x="605" y="335" width="30" height="10" as="geometry" />
        </mxCell>
        <mxCell id="GXxP0L6E-gwaG_Zp7ALa-8" value="" style="endArrow=classic;html=1;rounded=0;exitX=1;exitY=0.5;exitDx=0;exitDy=0;entryX=0;entryY=0.5;entryDx=0;entryDy=0;" parent="1" source="GXxP0L6E-gwaG_Zp7ALa-3" target="GXxP0L6E-gwaG_Zp7ALa-6" edge="1">
          <mxGeometry width="50" height="50" relative="1" as="geometry">
            <mxPoint x="520" y="380" as="sourcePoint" />
            <mxPoint x="580" y="330" as="targetPoint" />
          </mxGeometry>
        </mxCell>
        <mxCell id="GXxP0L6E-gwaG_Zp7ALa-10" value="Z1" style="text;html=1;align=center;verticalAlign=middle;whiteSpace=wrap;rounded=0;" parent="1" vertex="1">
          <mxGeometry x="550" y="330" width="20" height="10" as="geometry" />
        </mxCell>
        <mxCell id="GXxP0L6E-gwaG_Zp7ALa-34" value="" style="ellipse;whiteSpace=wrap;html=1;" parent="1" vertex="1">
          <mxGeometry x="730" y="380" width="40" height="20" as="geometry" />
        </mxCell>
        <mxCell id="GXxP0L6E-gwaG_Zp7ALa-35" value="2" style="text;html=1;align=center;verticalAlign=middle;whiteSpace=wrap;rounded=0;" parent="1" vertex="1">
          <mxGeometry x="735" y="385" width="30" height="10" as="geometry" />
        </mxCell>
        <mxCell id="GXxP0L6E-gwaG_Zp7ALa-40" value="" style="ellipse;whiteSpace=wrap;html=1;" parent="1" vertex="1">
          <mxGeometry x="827" y="380" width="40" height="20" as="geometry" />
        </mxCell>
        <mxCell id="GXxP0L6E-gwaG_Zp7ALa-41" value="3" style="text;html=1;align=center;verticalAlign=middle;whiteSpace=wrap;rounded=0;" parent="1" vertex="1">
          <mxGeometry x="832" y="385" width="30" height="10" as="geometry" />
        </mxCell>
        <mxCell id="GXxP0L6E-gwaG_Zp7ALa-48" value="" style="endArrow=classic;html=1;rounded=0;entryX=0;entryY=0.5;entryDx=0;entryDy=0;exitX=1;exitY=0.5;exitDx=0;exitDy=0;" parent="1" source="GXxP0L6E-gwaG_Zp7ALa-34" target="GXxP0L6E-gwaG_Zp7ALa-40" edge="1">
          <mxGeometry width="50" height="50" relative="1" as="geometry">
            <mxPoint x="660" y="480" as="sourcePoint" />
            <mxPoint x="710" y="430" as="targetPoint" />
          </mxGeometry>
        </mxCell>
        <mxCell id="GXxP0L6E-gwaG_Zp7ALa-49" value="Z2" style="text;html=1;align=center;verticalAlign=middle;whiteSpace=wrap;rounded=0;" parent="1" vertex="1">
          <mxGeometry x="780" y="380" width="35" height="10" as="geometry" />
        </mxCell>
        <mxCell id="GXxP0L6E-gwaG_Zp7ALa-51" value="" style="ellipse;whiteSpace=wrap;html=1;" parent="1" vertex="1">
          <mxGeometry x="729" y="450" width="40" height="20" as="geometry" />
        </mxCell>
        <mxCell id="GXxP0L6E-gwaG_Zp7ALa-52" value="8" style="text;html=1;align=center;verticalAlign=middle;whiteSpace=wrap;rounded=0;" parent="1" vertex="1">
          <mxGeometry x="734" y="455" width="30" height="10" as="geometry" />
        </mxCell>
        <mxCell id="GXxP0L6E-gwaG_Zp7ALa-53" value="" style="ellipse;whiteSpace=wrap;html=1;" parent="1" vertex="1">
          <mxGeometry x="826" y="450" width="40" height="20" as="geometry" />
        </mxCell>
        <mxCell id="GXxP0L6E-gwaG_Zp7ALa-54" value="9" style="text;html=1;align=center;verticalAlign=middle;whiteSpace=wrap;rounded=0;" parent="1" vertex="1">
          <mxGeometry x="831" y="455" width="30" height="10" as="geometry" />
        </mxCell>
        <mxCell id="GXxP0L6E-gwaG_Zp7ALa-55" value="" style="endArrow=classic;html=1;rounded=0;entryX=0;entryY=0.5;entryDx=0;entryDy=0;exitX=1;exitY=0.5;exitDx=0;exitDy=0;" parent="1" source="GXxP0L6E-gwaG_Zp7ALa-51" target="GXxP0L6E-gwaG_Zp7ALa-53" edge="1">
          <mxGeometry width="50" height="50" relative="1" as="geometry">
            <mxPoint x="659" y="550" as="sourcePoint" />
            <mxPoint x="709" y="500" as="targetPoint" />
          </mxGeometry>
        </mxCell>
        <mxCell id="GXxP0L6E-gwaG_Zp7ALa-56" value="Z5" style="text;html=1;align=center;verticalAlign=middle;whiteSpace=wrap;rounded=0;" parent="1" vertex="1">
          <mxGeometry x="779" y="450" width="35" height="10" as="geometry" />
        </mxCell>
        <mxCell id="GXxP0L6E-gwaG_Zp7ALa-57" value="" style="ellipse;whiteSpace=wrap;html=1;" parent="1" vertex="1">
          <mxGeometry x="895" y="420" width="40" height="20" as="geometry" />
        </mxCell>
        <mxCell id="GXxP0L6E-gwaG_Zp7ALa-58" value="4" style="text;html=1;align=center;verticalAlign=middle;whiteSpace=wrap;rounded=0;" parent="1" vertex="1">
          <mxGeometry x="900" y="425" width="30" height="10" as="geometry" />
        </mxCell>
        <mxCell id="GXxP0L6E-gwaG_Zp7ALa-59" value="" style="ellipse;whiteSpace=wrap;html=1;" parent="1" vertex="1">
          <mxGeometry x="992" y="420" width="40" height="20" as="geometry" />
        </mxCell>
        <mxCell id="GXxP0L6E-gwaG_Zp7ALa-60" value="5" style="text;html=1;align=center;verticalAlign=middle;whiteSpace=wrap;rounded=0;" parent="1" vertex="1">
          <mxGeometry x="997" y="425" width="30" height="10" as="geometry" />
        </mxCell>
        <mxCell id="GXxP0L6E-gwaG_Zp7ALa-61" value="" style="endArrow=classic;html=1;rounded=0;entryX=0;entryY=0.5;entryDx=0;entryDy=0;exitX=1;exitY=0.5;exitDx=0;exitDy=0;" parent="1" source="GXxP0L6E-gwaG_Zp7ALa-57" target="GXxP0L6E-gwaG_Zp7ALa-59" edge="1">
          <mxGeometry width="50" height="50" relative="1" as="geometry">
            <mxPoint x="825" y="520" as="sourcePoint" />
            <mxPoint x="875" y="470" as="targetPoint" />
          </mxGeometry>
        </mxCell>
        <mxCell id="GXxP0L6E-gwaG_Zp7ALa-62" value="Z3" style="text;html=1;align=center;verticalAlign=middle;whiteSpace=wrap;rounded=0;" parent="1" vertex="1">
          <mxGeometry x="945" y="420" width="35" height="10" as="geometry" />
        </mxCell>
        <mxCell id="GXxP0L6E-gwaG_Zp7ALa-69" value="" style="ellipse;whiteSpace=wrap;html=1;" parent="1" vertex="1">
          <mxGeometry x="894" y="510" width="40" height="20" as="geometry" />
        </mxCell>
        <mxCell id="GXxP0L6E-gwaG_Zp7ALa-70" value="12" style="text;html=1;align=center;verticalAlign=middle;whiteSpace=wrap;rounded=0;" parent="1" vertex="1">
          <mxGeometry x="899" y="515" width="30" height="10" as="geometry" />
        </mxCell>
        <mxCell id="GXxP0L6E-gwaG_Zp7ALa-71" value="" style="ellipse;whiteSpace=wrap;html=1;" parent="1" vertex="1">
          <mxGeometry x="991" y="510" width="40" height="20" as="geometry" />
        </mxCell>
        <mxCell id="GXxP0L6E-gwaG_Zp7ALa-72" value="13" style="text;html=1;align=center;verticalAlign=middle;whiteSpace=wrap;rounded=0;" parent="1" vertex="1">
          <mxGeometry x="996" y="515" width="30" height="10" as="geometry" />
        </mxCell>
        <mxCell id="GXxP0L6E-gwaG_Zp7ALa-73" value="" style="endArrow=classic;html=1;rounded=0;entryX=0;entryY=0.5;entryDx=0;entryDy=0;exitX=1;exitY=0.5;exitDx=0;exitDy=0;" parent="1" source="GXxP0L6E-gwaG_Zp7ALa-69" target="GXxP0L6E-gwaG_Zp7ALa-71" edge="1">
          <mxGeometry width="50" height="50" relative="1" as="geometry">
            <mxPoint x="824" y="610" as="sourcePoint" />
            <mxPoint x="874" y="560" as="targetPoint" />
          </mxGeometry>
        </mxCell>
        <mxCell id="GXxP0L6E-gwaG_Zp7ALa-74" value="Z7" style="text;html=1;align=center;verticalAlign=middle;whiteSpace=wrap;rounded=0;" parent="1" vertex="1">
          <mxGeometry x="944" y="510" width="35" height="10" as="geometry" />
        </mxCell>
        <mxCell id="GXxP0L6E-gwaG_Zp7ALa-75" value="" style="ellipse;whiteSpace=wrap;html=1;" parent="1" vertex="1">
          <mxGeometry x="491.5" y="450" width="40" height="20" as="geometry" />
        </mxCell>
        <mxCell id="GXxP0L6E-gwaG_Zp7ALa-76" value="6" style="text;html=1;align=center;verticalAlign=middle;whiteSpace=wrap;rounded=0;" parent="1" vertex="1">
          <mxGeometry x="496.5" y="455" width="30" height="10" as="geometry" />
        </mxCell>
        <mxCell id="GXxP0L6E-gwaG_Zp7ALa-77" value="" style="ellipse;whiteSpace=wrap;html=1;" parent="1" vertex="1">
          <mxGeometry x="588.5" y="450" width="40" height="20" as="geometry" />
        </mxCell>
        <mxCell id="GXxP0L6E-gwaG_Zp7ALa-78" value="7" style="text;html=1;align=center;verticalAlign=middle;whiteSpace=wrap;rounded=0;" parent="1" vertex="1">
          <mxGeometry x="593.5" y="455" width="30" height="10" as="geometry" />
        </mxCell>
        <mxCell id="GXxP0L6E-gwaG_Zp7ALa-79" value="" style="endArrow=classic;html=1;rounded=0;entryX=0;entryY=0.5;entryDx=0;entryDy=0;exitX=1;exitY=0.5;exitDx=0;exitDy=0;" parent="1" source="GXxP0L6E-gwaG_Zp7ALa-75" target="GXxP0L6E-gwaG_Zp7ALa-77" edge="1">
          <mxGeometry width="50" height="50" relative="1" as="geometry">
            <mxPoint x="421.5" y="550" as="sourcePoint" />
            <mxPoint x="471.5" y="500" as="targetPoint" />
          </mxGeometry>
        </mxCell>
        <mxCell id="GXxP0L6E-gwaG_Zp7ALa-80" value="Z4" style="text;html=1;align=center;verticalAlign=middle;whiteSpace=wrap;rounded=0;" parent="1" vertex="1">
          <mxGeometry x="541.5" y="450" width="35" height="10" as="geometry" />
        </mxCell>
        <mxCell id="GXxP0L6E-gwaG_Zp7ALa-81" value="" style="ellipse;whiteSpace=wrap;html=1;" parent="1" vertex="1">
          <mxGeometry x="605" y="510" width="40" height="20" as="geometry" />
        </mxCell>
        <mxCell id="GXxP0L6E-gwaG_Zp7ALa-82" value="10" style="text;html=1;align=center;verticalAlign=middle;whiteSpace=wrap;rounded=0;" parent="1" vertex="1">
          <mxGeometry x="610" y="515" width="30" height="10" as="geometry" />
        </mxCell>
        <mxCell id="GXxP0L6E-gwaG_Zp7ALa-83" value="" style="ellipse;whiteSpace=wrap;html=1;" parent="1" vertex="1">
          <mxGeometry x="702" y="510" width="40" height="20" as="geometry" />
        </mxCell>
        <mxCell id="GXxP0L6E-gwaG_Zp7ALa-84" value="11" style="text;html=1;align=center;verticalAlign=middle;whiteSpace=wrap;rounded=0;" parent="1" vertex="1">
          <mxGeometry x="707" y="515" width="30" height="10" as="geometry" />
        </mxCell>
        <mxCell id="GXxP0L6E-gwaG_Zp7ALa-85" value="" style="endArrow=classic;html=1;rounded=0;entryX=0;entryY=0.5;entryDx=0;entryDy=0;exitX=1;exitY=0.5;exitDx=0;exitDy=0;" parent="1" source="GXxP0L6E-gwaG_Zp7ALa-81" target="GXxP0L6E-gwaG_Zp7ALa-83" edge="1">
          <mxGeometry width="50" height="50" relative="1" as="geometry">
            <mxPoint x="535" y="610" as="sourcePoint" />
            <mxPoint x="585" y="560" as="targetPoint" />
          </mxGeometry>
        </mxCell>
        <mxCell id="GXxP0L6E-gwaG_Zp7ALa-86" value="Z6" style="text;html=1;align=center;verticalAlign=middle;whiteSpace=wrap;rounded=0;" parent="1" vertex="1">
          <mxGeometry x="655" y="510" width="35" height="10" as="geometry" />
        </mxCell>
        <mxCell id="GXxP0L6E-gwaG_Zp7ALa-87" value="" style="ellipse;whiteSpace=wrap;html=1;" parent="1" vertex="1">
          <mxGeometry x="490.5" y="575" width="40" height="20" as="geometry" />
        </mxCell>
        <mxCell id="GXxP0L6E-gwaG_Zp7ALa-88" value="14" style="text;html=1;align=center;verticalAlign=middle;whiteSpace=wrap;rounded=0;" parent="1" vertex="1">
          <mxGeometry x="495.5" y="580" width="30" height="10" as="geometry" />
        </mxCell>
        <mxCell id="GXxP0L6E-gwaG_Zp7ALa-89" value="" style="ellipse;whiteSpace=wrap;html=1;" parent="1" vertex="1">
          <mxGeometry x="587.5" y="575" width="40" height="20" as="geometry" />
        </mxCell>
        <mxCell id="GXxP0L6E-gwaG_Zp7ALa-90" value="15" style="text;html=1;align=center;verticalAlign=middle;whiteSpace=wrap;rounded=0;" parent="1" vertex="1">
          <mxGeometry x="592.5" y="580" width="30" height="10" as="geometry" />
        </mxCell>
        <mxCell id="GXxP0L6E-gwaG_Zp7ALa-91" value="" style="endArrow=classic;html=1;rounded=0;entryX=0;entryY=0.5;entryDx=0;entryDy=0;exitX=1;exitY=0.5;exitDx=0;exitDy=0;" parent="1" source="GXxP0L6E-gwaG_Zp7ALa-87" target="GXxP0L6E-gwaG_Zp7ALa-89" edge="1">
          <mxGeometry width="50" height="50" relative="1" as="geometry">
            <mxPoint x="420.5" y="675" as="sourcePoint" />
            <mxPoint x="470.5" y="625" as="targetPoint" />
          </mxGeometry>
        </mxCell>
        <mxCell id="GXxP0L6E-gwaG_Zp7ALa-92" value="Z8" style="text;html=1;align=center;verticalAlign=middle;whiteSpace=wrap;rounded=0;" parent="1" vertex="1">
          <mxGeometry x="540.5" y="575" width="35" height="10" as="geometry" />
        </mxCell>
        <mxCell id="GXxP0L6E-gwaG_Zp7ALa-94" value="" style="ellipse;whiteSpace=wrap;html=1;" parent="1" vertex="1">
          <mxGeometry x="604" y="650" width="40" height="20" as="geometry" />
        </mxCell>
        <mxCell id="GXxP0L6E-gwaG_Zp7ALa-95" value="16" style="text;html=1;align=center;verticalAlign=middle;whiteSpace=wrap;rounded=0;" parent="1" vertex="1">
          <mxGeometry x="610" y="652.5" width="30" height="15" as="geometry" />
        </mxCell>
        <mxCell id="GXxP0L6E-gwaG_Zp7ALa-96" value="" style="ellipse;whiteSpace=wrap;html=1;" parent="1" vertex="1">
          <mxGeometry x="701" y="650" width="40" height="20" as="geometry" />
        </mxCell>
        <mxCell id="GXxP0L6E-gwaG_Zp7ALa-97" value="17" style="text;html=1;align=center;verticalAlign=middle;whiteSpace=wrap;rounded=0;" parent="1" vertex="1">
          <mxGeometry x="706" y="655" width="30" height="10" as="geometry" />
        </mxCell>
        <mxCell id="GXxP0L6E-gwaG_Zp7ALa-98" value="" style="endArrow=classic;html=1;rounded=0;entryX=0;entryY=0.5;entryDx=0;entryDy=0;exitX=1;exitY=0.5;exitDx=0;exitDy=0;" parent="1" source="GXxP0L6E-gwaG_Zp7ALa-94" target="GXxP0L6E-gwaG_Zp7ALa-96" edge="1">
          <mxGeometry width="50" height="50" relative="1" as="geometry">
            <mxPoint x="534" y="750" as="sourcePoint" />
            <mxPoint x="584" y="700" as="targetPoint" />
          </mxGeometry>
        </mxCell>
        <mxCell id="GXxP0L6E-gwaG_Zp7ALa-99" value="Z9" style="text;html=1;align=center;verticalAlign=middle;whiteSpace=wrap;rounded=0;" parent="1" vertex="1">
          <mxGeometry x="654" y="650" width="35" height="10" as="geometry" />
        </mxCell>
        <mxCell id="GXxP0L6E-gwaG_Zp7ALa-100" value="" style="ellipse;whiteSpace=wrap;html=1;" parent="1" vertex="1">
          <mxGeometry x="728" y="720" width="40" height="20" as="geometry" />
        </mxCell>
        <mxCell id="GXxP0L6E-gwaG_Zp7ALa-101" value="18" style="text;html=1;align=center;verticalAlign=middle;whiteSpace=wrap;rounded=0;" parent="1" vertex="1">
          <mxGeometry x="733" y="722.5" width="30" height="15" as="geometry" />
        </mxCell>
        <mxCell id="GXxP0L6E-gwaG_Zp7ALa-102" value="" style="ellipse;whiteSpace=wrap;html=1;" parent="1" vertex="1">
          <mxGeometry x="825" y="720" width="40" height="20" as="geometry" />
        </mxCell>
        <mxCell id="GXxP0L6E-gwaG_Zp7ALa-103" value="19" style="text;html=1;align=center;verticalAlign=middle;whiteSpace=wrap;rounded=0;" parent="1" vertex="1">
          <mxGeometry x="830" y="725" width="30" height="10" as="geometry" />
        </mxCell>
        <mxCell id="GXxP0L6E-gwaG_Zp7ALa-104" value="" style="endArrow=classic;html=1;rounded=0;entryX=0;entryY=0.5;entryDx=0;entryDy=0;exitX=1;exitY=0.5;exitDx=0;exitDy=0;" parent="1" source="GXxP0L6E-gwaG_Zp7ALa-100" target="GXxP0L6E-gwaG_Zp7ALa-102" edge="1">
          <mxGeometry width="50" height="50" relative="1" as="geometry">
            <mxPoint x="658" y="820" as="sourcePoint" />
            <mxPoint x="708" y="770" as="targetPoint" />
          </mxGeometry>
        </mxCell>
        <mxCell id="GXxP0L6E-gwaG_Zp7ALa-105" value="Z10" style="text;html=1;align=center;verticalAlign=middle;whiteSpace=wrap;rounded=0;" parent="1" vertex="1">
          <mxGeometry x="778" y="720" width="35" height="10" as="geometry" />
        </mxCell>
        <mxCell id="GXxP0L6E-gwaG_Zp7ALa-106" value="" style="ellipse;whiteSpace=wrap;html=1;" parent="1" vertex="1">
          <mxGeometry x="893" y="780" width="40" height="20" as="geometry" />
        </mxCell>
        <mxCell id="GXxP0L6E-gwaG_Zp7ALa-107" value="20" style="text;html=1;align=center;verticalAlign=middle;whiteSpace=wrap;rounded=0;" parent="1" vertex="1">
          <mxGeometry x="898" y="782.5" width="30" height="15" as="geometry" />
        </mxCell>
        <mxCell id="GXxP0L6E-gwaG_Zp7ALa-108" value="" style="ellipse;whiteSpace=wrap;html=1;" parent="1" vertex="1">
          <mxGeometry x="990" y="780" width="40" height="20" as="geometry" />
        </mxCell>
        <mxCell id="GXxP0L6E-gwaG_Zp7ALa-109" value="21" style="text;html=1;align=center;verticalAlign=middle;whiteSpace=wrap;rounded=0;" parent="1" vertex="1">
          <mxGeometry x="995" y="785" width="30" height="10" as="geometry" />
        </mxCell>
        <mxCell id="GXxP0L6E-gwaG_Zp7ALa-110" value="" style="endArrow=classic;html=1;rounded=0;entryX=0;entryY=0.5;entryDx=0;entryDy=0;exitX=1;exitY=0.5;exitDx=0;exitDy=0;" parent="1" source="GXxP0L6E-gwaG_Zp7ALa-106" target="GXxP0L6E-gwaG_Zp7ALa-108" edge="1">
          <mxGeometry width="50" height="50" relative="1" as="geometry">
            <mxPoint x="823" y="880" as="sourcePoint" />
            <mxPoint x="873" y="830" as="targetPoint" />
          </mxGeometry>
        </mxCell>
        <mxCell id="GXxP0L6E-gwaG_Zp7ALa-111" value="Z11" style="text;html=1;align=center;verticalAlign=middle;whiteSpace=wrap;rounded=0;" parent="1" vertex="1">
          <mxGeometry x="943" y="780" width="35" height="10" as="geometry" />
        </mxCell>
        <mxCell id="GXxP0L6E-gwaG_Zp7ALa-120" value="" style="ellipse;whiteSpace=wrap;html=1;" parent="1" vertex="1">
          <mxGeometry x="892" y="950" width="40" height="20" as="geometry" />
        </mxCell>
        <mxCell id="GXxP0L6E-gwaG_Zp7ALa-121" value="26" style="text;html=1;align=center;verticalAlign=middle;whiteSpace=wrap;rounded=0;" parent="1" vertex="1">
          <mxGeometry x="897" y="952.5" width="30" height="15" as="geometry" />
        </mxCell>
        <mxCell id="GXxP0L6E-gwaG_Zp7ALa-122" value="" style="ellipse;whiteSpace=wrap;html=1;" parent="1" vertex="1">
          <mxGeometry x="989" y="950" width="40" height="20" as="geometry" />
        </mxCell>
        <mxCell id="GXxP0L6E-gwaG_Zp7ALa-123" value="27" style="text;html=1;align=center;verticalAlign=middle;whiteSpace=wrap;rounded=0;" parent="1" vertex="1">
          <mxGeometry x="994" y="955" width="30" height="10" as="geometry" />
        </mxCell>
        <mxCell id="GXxP0L6E-gwaG_Zp7ALa-124" value="" style="endArrow=classic;html=1;rounded=0;entryX=0;entryY=0.5;entryDx=0;entryDy=0;exitX=1;exitY=0.5;exitDx=0;exitDy=0;" parent="1" source="GXxP0L6E-gwaG_Zp7ALa-120" target="GXxP0L6E-gwaG_Zp7ALa-122" edge="1">
          <mxGeometry width="50" height="50" relative="1" as="geometry">
            <mxPoint x="822" y="1050" as="sourcePoint" />
            <mxPoint x="872" y="1000" as="targetPoint" />
          </mxGeometry>
        </mxCell>
        <mxCell id="GXxP0L6E-gwaG_Zp7ALa-125" value="Z14" style="text;html=1;align=center;verticalAlign=middle;whiteSpace=wrap;rounded=0;" parent="1" vertex="1">
          <mxGeometry x="942" y="950" width="35" height="10" as="geometry" />
        </mxCell>
        <mxCell id="GXxP0L6E-gwaG_Zp7ALa-126" value="" style="ellipse;whiteSpace=wrap;html=1;" parent="1" vertex="1">
          <mxGeometry x="489.5" y="820" width="40" height="20" as="geometry" />
        </mxCell>
        <mxCell id="GXxP0L6E-gwaG_Zp7ALa-127" value="22" style="text;html=1;align=center;verticalAlign=middle;whiteSpace=wrap;rounded=0;" parent="1" vertex="1">
          <mxGeometry x="494.5" y="822.5" width="30" height="15" as="geometry" />
        </mxCell>
        <mxCell id="GXxP0L6E-gwaG_Zp7ALa-128" value="" style="ellipse;whiteSpace=wrap;html=1;" parent="1" vertex="1">
          <mxGeometry x="586.5" y="820" width="40" height="20" as="geometry" />
        </mxCell>
        <mxCell id="GXxP0L6E-gwaG_Zp7ALa-129" value="23" style="text;html=1;align=center;verticalAlign=middle;whiteSpace=wrap;rounded=0;" parent="1" vertex="1">
          <mxGeometry x="591.5" y="825" width="30" height="10" as="geometry" />
        </mxCell>
        <mxCell id="GXxP0L6E-gwaG_Zp7ALa-130" value="" style="endArrow=classic;html=1;rounded=0;entryX=0;entryY=0.5;entryDx=0;entryDy=0;exitX=1;exitY=0.5;exitDx=0;exitDy=0;" parent="1" source="GXxP0L6E-gwaG_Zp7ALa-126" target="GXxP0L6E-gwaG_Zp7ALa-128" edge="1">
          <mxGeometry width="50" height="50" relative="1" as="geometry">
            <mxPoint x="419.5" y="920" as="sourcePoint" />
            <mxPoint x="469.5" y="870" as="targetPoint" />
          </mxGeometry>
        </mxCell>
        <mxCell id="GXxP0L6E-gwaG_Zp7ALa-131" value="Z12" style="text;html=1;align=center;verticalAlign=middle;whiteSpace=wrap;rounded=0;" parent="1" vertex="1">
          <mxGeometry x="539.5" y="820" width="35" height="10" as="geometry" />
        </mxCell>
        <mxCell id="GXxP0L6E-gwaG_Zp7ALa-132" value="" style="ellipse;whiteSpace=wrap;html=1;" parent="1" vertex="1">
          <mxGeometry x="605" y="872.5" width="40" height="20" as="geometry" />
        </mxCell>
        <mxCell id="GXxP0L6E-gwaG_Zp7ALa-133" value="28" style="text;html=1;align=center;verticalAlign=middle;whiteSpace=wrap;rounded=0;" parent="1" vertex="1">
          <mxGeometry x="610" y="875" width="30" height="15" as="geometry" />
        </mxCell>
        <mxCell id="GXxP0L6E-gwaG_Zp7ALa-134" value="" style="ellipse;whiteSpace=wrap;html=1;" parent="1" vertex="1">
          <mxGeometry x="702" y="872.5" width="40" height="20" as="geometry" />
        </mxCell>
        <mxCell id="GXxP0L6E-gwaG_Zp7ALa-135" value="29" style="text;html=1;align=center;verticalAlign=middle;whiteSpace=wrap;rounded=0;" parent="1" vertex="1">
          <mxGeometry x="707" y="877.5" width="30" height="10" as="geometry" />
        </mxCell>
        <mxCell id="GXxP0L6E-gwaG_Zp7ALa-136" value="" style="endArrow=classic;html=1;rounded=0;entryX=0;entryY=0.5;entryDx=0;entryDy=0;exitX=1;exitY=0.5;exitDx=0;exitDy=0;" parent="1" source="GXxP0L6E-gwaG_Zp7ALa-132" target="GXxP0L6E-gwaG_Zp7ALa-134" edge="1">
          <mxGeometry width="50" height="50" relative="1" as="geometry">
            <mxPoint x="535" y="972.5" as="sourcePoint" />
            <mxPoint x="585" y="922.5" as="targetPoint" />
          </mxGeometry>
        </mxCell>
        <mxCell id="GXxP0L6E-gwaG_Zp7ALa-137" value="Z15" style="text;html=1;align=center;verticalAlign=middle;whiteSpace=wrap;rounded=0;" parent="1" vertex="1">
          <mxGeometry x="655" y="872.5" width="35" height="10" as="geometry" />
        </mxCell>
        <mxCell id="GXxP0L6E-gwaG_Zp7ALa-138" value="" style="ellipse;whiteSpace=wrap;html=1;" parent="1" vertex="1">
          <mxGeometry x="728" y="820" width="40" height="20" as="geometry" />
        </mxCell>
        <mxCell id="GXxP0L6E-gwaG_Zp7ALa-139" value="24" style="text;html=1;align=center;verticalAlign=middle;whiteSpace=wrap;rounded=0;" parent="1" vertex="1">
          <mxGeometry x="733" y="822.5" width="30" height="15" as="geometry" />
        </mxCell>
        <mxCell id="GXxP0L6E-gwaG_Zp7ALa-140" value="" style="ellipse;whiteSpace=wrap;html=1;" parent="1" vertex="1">
          <mxGeometry x="825" y="820" width="40" height="20" as="geometry" />
        </mxCell>
        <mxCell id="GXxP0L6E-gwaG_Zp7ALa-141" value="25" style="text;html=1;align=center;verticalAlign=middle;whiteSpace=wrap;rounded=0;" parent="1" vertex="1">
          <mxGeometry x="830" y="825" width="30" height="10" as="geometry" />
        </mxCell>
        <mxCell id="GXxP0L6E-gwaG_Zp7ALa-142" value="" style="endArrow=classic;html=1;rounded=0;entryX=0;entryY=0.5;entryDx=0;entryDy=0;exitX=1;exitY=0.5;exitDx=0;exitDy=0;" parent="1" source="GXxP0L6E-gwaG_Zp7ALa-138" target="GXxP0L6E-gwaG_Zp7ALa-140" edge="1">
          <mxGeometry width="50" height="50" relative="1" as="geometry">
            <mxPoint x="658" y="920" as="sourcePoint" />
            <mxPoint x="708" y="870" as="targetPoint" />
          </mxGeometry>
        </mxCell>
        <mxCell id="GXxP0L6E-gwaG_Zp7ALa-143" value="Z13" style="text;html=1;align=center;verticalAlign=middle;whiteSpace=wrap;rounded=0;" parent="1" vertex="1">
          <mxGeometry x="778" y="820" width="35" height="10" as="geometry" />
        </mxCell>
        <mxCell id="GXxP0L6E-gwaG_Zp7ALa-149" value="" style="endArrow=none;dashed=1;html=1;rounded=0;exitX=1;exitY=0.5;exitDx=0;exitDy=0;entryX=0;entryY=0.5;entryDx=0;entryDy=0;" parent="1" source="GXxP0L6E-gwaG_Zp7ALa-6" target="GXxP0L6E-gwaG_Zp7ALa-34" edge="1">
          <mxGeometry width="50" height="50" relative="1" as="geometry">
            <mxPoint x="680" y="590" as="sourcePoint" />
            <mxPoint x="730" y="540" as="targetPoint" />
          </mxGeometry>
        </mxCell>
        <mxCell id="GXxP0L6E-gwaG_Zp7ALa-151" value="" style="endArrow=none;dashed=1;html=1;rounded=0;entryX=0;entryY=0.5;entryDx=0;entryDy=0;exitX=1;exitY=0.5;exitDx=0;exitDy=0;" parent="1" source="GXxP0L6E-gwaG_Zp7ALa-40" target="GXxP0L6E-gwaG_Zp7ALa-57" edge="1">
          <mxGeometry width="50" height="50" relative="1" as="geometry">
            <mxPoint x="790" y="530" as="sourcePoint" />
            <mxPoint x="840" y="480" as="targetPoint" />
          </mxGeometry>
        </mxCell>
        <mxCell id="GXxP0L6E-gwaG_Zp7ALa-152" value="" style="endArrow=none;dashed=1;html=1;rounded=0;edgeStyle=orthogonalEdgeStyle;entryX=0.5;entryY=0;entryDx=0;entryDy=0;exitX=0.5;exitY=1;exitDx=0;exitDy=0;" parent="1" source="GXxP0L6E-gwaG_Zp7ALa-134" target="GXxP0L6E-gwaG_Zp7ALa-57" edge="1">
          <mxGeometry width="50" height="50" relative="1" as="geometry">
            <mxPoint x="720" y="890" as="sourcePoint" />
            <mxPoint x="1130" y="340" as="targetPoint" />
            <Array as="points">
              <mxPoint x="722" y="898" />
              <mxPoint x="1100" y="898" />
              <mxPoint x="1100" y="390" />
              <mxPoint x="915" y="390" />
            </Array>
          </mxGeometry>
        </mxCell>
        <mxCell id="GXxP0L6E-gwaG_Zp7ALa-154" value="" style="endArrow=none;dashed=1;html=1;rounded=0;entryX=0.5;entryY=1;entryDx=0;entryDy=0;exitX=0;exitY=0;exitDx=0;exitDy=0;" parent="1" source="GXxP0L6E-gwaG_Zp7ALa-121" target="GXxP0L6E-gwaG_Zp7ALa-140" edge="1">
          <mxGeometry width="50" height="50" relative="1" as="geometry">
            <mxPoint x="680" y="380" as="sourcePoint" />
            <mxPoint x="800" y="1050" as="targetPoint" />
          </mxGeometry>
        </mxCell>
        <mxCell id="GXxP0L6E-gwaG_Zp7ALa-155" value="" style="endArrow=none;dashed=1;html=1;rounded=0;edgeStyle=orthogonalEdgeStyle;entryX=0.5;entryY=1;entryDx=0;entryDy=0;exitX=0.5;exitY=0;exitDx=0;exitDy=0;" parent="1" source="GXxP0L6E-gwaG_Zp7ALa-134" target="GXxP0L6E-gwaG_Zp7ALa-69" edge="1">
          <mxGeometry width="50" height="50" relative="1" as="geometry">
            <mxPoint x="760" y="870" as="sourcePoint" />
            <mxPoint x="920" y="710" as="targetPoint" />
          </mxGeometry>
        </mxCell>
        <mxCell id="GXxP0L6E-gwaG_Zp7ALa-158" value="" style="ellipse;whiteSpace=wrap;html=1;" parent="1" vertex="1">
          <mxGeometry x="488.5" y="920" width="40" height="20" as="geometry" />
        </mxCell>
        <mxCell id="GXxP0L6E-gwaG_Zp7ALa-159" value="30" style="text;html=1;align=center;verticalAlign=middle;whiteSpace=wrap;rounded=0;" parent="1" vertex="1">
          <mxGeometry x="493.5" y="922.5" width="30" height="15" as="geometry" />
        </mxCell>
        <mxCell id="GXxP0L6E-gwaG_Zp7ALa-160" value="" style="ellipse;whiteSpace=wrap;html=1;" parent="1" vertex="1">
          <mxGeometry x="585.5" y="920" width="40" height="20" as="geometry" />
        </mxCell>
        <mxCell id="GXxP0L6E-gwaG_Zp7ALa-161" value="31" style="text;html=1;align=center;verticalAlign=middle;whiteSpace=wrap;rounded=0;" parent="1" vertex="1">
          <mxGeometry x="590.5" y="925" width="30" height="10" as="geometry" />
        </mxCell>
        <mxCell id="GXxP0L6E-gwaG_Zp7ALa-162" value="" style="endArrow=classic;html=1;rounded=0;entryX=0;entryY=0.5;entryDx=0;entryDy=0;exitX=1;exitY=0.5;exitDx=0;exitDy=0;" parent="1" source="GXxP0L6E-gwaG_Zp7ALa-158" target="GXxP0L6E-gwaG_Zp7ALa-160" edge="1">
          <mxGeometry width="50" height="50" relative="1" as="geometry">
            <mxPoint x="418.5" y="1020" as="sourcePoint" />
            <mxPoint x="468.5" y="970" as="targetPoint" />
          </mxGeometry>
        </mxCell>
        <mxCell id="GXxP0L6E-gwaG_Zp7ALa-163" value="Z16" style="text;html=1;align=center;verticalAlign=middle;whiteSpace=wrap;rounded=0;" parent="1" vertex="1">
          <mxGeometry x="538.5" y="920" width="35" height="10" as="geometry" />
        </mxCell>
        <mxCell id="GXxP0L6E-gwaG_Zp7ALa-164" value="" style="endArrow=none;dashed=1;html=1;rounded=0;edgeStyle=orthogonalEdgeStyle;exitX=0;exitY=0.5;exitDx=0;exitDy=0;" parent="1" source="GXxP0L6E-gwaG_Zp7ALa-158" edge="1">
          <mxGeometry width="50" height="50" relative="1" as="geometry">
            <mxPoint x="500" y="960" as="sourcePoint" />
            <mxPoint x="620" y="350" as="targetPoint" />
            <Array as="points">
              <mxPoint x="460" y="930" />
              <mxPoint x="460" y="360" />
              <mxPoint x="620" y="360" />
            </Array>
          </mxGeometry>
        </mxCell>
        <mxCell id="GXxP0L6E-gwaG_Zp7ALa-165" value="" style="endArrow=none;dashed=1;html=1;rounded=0;exitX=0.5;exitY=0;exitDx=0;exitDy=0;edgeStyle=orthogonalEdgeStyle;entryX=0.5;entryY=1;entryDx=0;entryDy=0;" parent="1" source="GXxP0L6E-gwaG_Zp7ALa-160" target="GXxP0L6E-gwaG_Zp7ALa-87" edge="1">
          <mxGeometry width="50" height="50" relative="1" as="geometry">
            <mxPoint x="490" y="640" as="sourcePoint" />
            <mxPoint x="511" y="600" as="targetPoint" />
            <Array as="points">
              <mxPoint x="605" y="910" />
              <mxPoint x="490" y="910" />
              <mxPoint x="490" y="630" />
              <mxPoint x="511" y="630" />
            </Array>
          </mxGeometry>
        </mxCell>
        <mxCell id="GXxP0L6E-gwaG_Zp7ALa-166" value="" style="endArrow=none;dashed=1;html=1;rounded=0;edgeStyle=orthogonalEdgeStyle;exitX=0.5;exitY=0;exitDx=0;exitDy=0;entryX=0.5;entryY=1;entryDx=0;entryDy=0;" parent="1" source="GXxP0L6E-gwaG_Zp7ALa-160" target="GXxP0L6E-gwaG_Zp7ALa-75" edge="1">
          <mxGeometry width="50" height="50" relative="1" as="geometry">
            <mxPoint x="600" y="920" as="sourcePoint" />
            <mxPoint x="610" y="660" as="targetPoint" />
            <Array as="points">
              <mxPoint x="605" y="900" />
              <mxPoint x="480" y="900" />
              <mxPoint x="480" y="480" />
              <mxPoint x="511" y="480" />
            </Array>
          </mxGeometry>
        </mxCell>
        <mxCell id="GXxP0L6E-gwaG_Zp7ALa-167" value="" style="endArrow=none;dashed=1;html=1;rounded=0;edgeStyle=orthogonalEdgeStyle;entryX=0;entryY=0.5;entryDx=0;entryDy=0;" parent="1" target="GXxP0L6E-gwaG_Zp7ALa-81" edge="1">
          <mxGeometry width="50" height="50" relative="1" as="geometry">
            <mxPoint x="605" y="920" as="sourcePoint" />
            <mxPoint x="630" y="700" as="targetPoint" />
            <Array as="points">
              <mxPoint x="605" y="890" />
              <mxPoint x="470" y="890" />
              <mxPoint x="470" y="520" />
            </Array>
          </mxGeometry>
        </mxCell>
        <mxCell id="GXxP0L6E-gwaG_Zp7ALa-168" value="" style="endArrow=none;dashed=1;html=1;rounded=0;edgeStyle=orthogonalEdgeStyle;entryX=1;entryY=0.5;entryDx=0;entryDy=0;exitX=1;exitY=1;exitDx=0;exitDy=0;" parent="1" source="GXxP0L6E-gwaG_Zp7ALa-127" target="GXxP0L6E-gwaG_Zp7ALa-108" edge="1">
          <mxGeometry width="50" height="50" relative="1" as="geometry">
            <mxPoint x="660" y="950" as="sourcePoint" />
            <mxPoint x="1050" y="810" as="targetPoint" />
            <Array as="points">
              <mxPoint x="540" y="838" />
              <mxPoint x="540" y="990" />
              <mxPoint x="1090" y="990" />
              <mxPoint x="1090" y="790" />
            </Array>
          </mxGeometry>
        </mxCell>
        <mxCell id="GXxP0L6E-gwaG_Zp7ALa-169" value="" style="endArrow=none;dashed=1;html=1;rounded=0;edgeStyle=orthogonalEdgeStyle;entryX=0.5;entryY=1;entryDx=0;entryDy=0;exitX=0.323;exitY=0.058;exitDx=0;exitDy=0;exitPerimeter=0;" parent="1" source="GXxP0L6E-gwaG_Zp7ALa-134" target="GXxP0L6E-gwaG_Zp7ALa-51" edge="1">
          <mxGeometry width="50" height="50" relative="1" as="geometry">
            <mxPoint x="715" y="870" as="sourcePoint" />
            <mxPoint x="840" y="670" as="targetPoint" />
            <Array as="points">
              <mxPoint x="715" y="690" />
              <mxPoint x="749" y="690" />
            </Array>
          </mxGeometry>
        </mxCell>
        <mxCell id="GXxP0L6E-gwaG_Zp7ALa-170" value="" style="endArrow=none;dashed=1;html=1;rounded=0;edgeStyle=orthogonalEdgeStyle;exitX=0;exitY=0;exitDx=0;exitDy=0;entryX=0.678;entryY=1.461;entryDx=0;entryDy=0;entryPerimeter=0;" parent="1" source="GXxP0L6E-gwaG_Zp7ALa-135" target="GXxP0L6E-gwaG_Zp7ALa-88" edge="1">
          <mxGeometry width="50" height="50" relative="1" as="geometry">
            <mxPoint x="690" y="810" as="sourcePoint" />
            <mxPoint x="518" y="590" as="targetPoint" />
          </mxGeometry>
        </mxCell>
        <mxCell id="GXxP0L6E-gwaG_Zp7ALa-171" value="" style="endArrow=none;dashed=1;html=1;rounded=0;edgeStyle=orthogonalEdgeStyle;entryX=1;entryY=1;entryDx=0;entryDy=0;" parent="1" target="GXxP0L6E-gwaG_Zp7ALa-51" edge="1">
          <mxGeometry width="50" height="50" relative="1" as="geometry">
            <mxPoint x="605" y="920" as="sourcePoint" />
            <mxPoint x="690" y="700" as="targetPoint" />
            <Array as="points">
              <mxPoint x="606" y="920" />
              <mxPoint x="606" y="860" />
              <mxPoint x="700" y="860" />
              <mxPoint x="700" y="680" />
              <mxPoint x="763" y="680" />
            </Array>
          </mxGeometry>
        </mxCell>
        <mxCell id="GXxP0L6E-gwaG_Zp7ALa-172" value="" style="endArrow=none;dashed=1;html=1;rounded=0;edgeStyle=orthogonalEdgeStyle;" parent="1" edge="1">
          <mxGeometry width="50" height="50" relative="1" as="geometry">
            <mxPoint x="606" y="920" as="sourcePoint" />
            <mxPoint x="906" y="530" as="targetPoint" />
            <Array as="points">
              <mxPoint x="605" y="850" />
              <mxPoint x="680" y="850" />
              <mxPoint x="680" y="690" />
              <mxPoint x="907" y="690" />
            </Array>
          </mxGeometry>
        </mxCell>
        <mxCell id="GXxP0L6E-gwaG_Zp7ALa-173" value="" style="endArrow=none;dashed=1;html=1;rounded=0;edgeStyle=orthogonalEdgeStyle;exitX=0;exitY=0.5;exitDx=0;exitDy=0;" parent="1" source="GXxP0L6E-gwaG_Zp7ALa-87" edge="1">
          <mxGeometry width="50" height="50" relative="1" as="geometry">
            <mxPoint x="490" y="580" as="sourcePoint" />
            <mxPoint x="1012" y="420" as="targetPoint" />
            <Array as="points">
              <mxPoint x="440" y="585" />
              <mxPoint x="440" y="410" />
              <mxPoint x="1012" y="410" />
            </Array>
          </mxGeometry>
        </mxCell>
        <mxCell id="GXxP0L6E-gwaG_Zp7ALa-174" value="" style="endArrow=none;dashed=1;html=1;rounded=0;edgeStyle=orthogonalEdgeStyle;exitX=0.486;exitY=-0.239;exitDx=0;exitDy=0;exitPerimeter=0;" parent="1" source="GXxP0L6E-gwaG_Zp7ALa-133" edge="1">
          <mxGeometry width="50" height="50" relative="1" as="geometry">
            <mxPoint x="625" y="870" as="sourcePoint" />
            <mxPoint x="620" y="350" as="targetPoint" />
            <Array as="points">
              <mxPoint x="625" y="870" />
              <mxPoint x="420" y="870" />
              <mxPoint x="420" y="350" />
            </Array>
          </mxGeometry>
        </mxCell>
        <mxCell id="GXxP0L6E-gwaG_Zp7ALa-175" value="" style="endArrow=none;dashed=1;html=1;rounded=0;edgeStyle=orthogonalEdgeStyle;entryX=0.5;entryY=1;entryDx=0;entryDy=0;exitX=0.5;exitY=0;exitDx=0;exitDy=0;" parent="1" source="GXxP0L6E-gwaG_Zp7ALa-75" target="GXxP0L6E-gwaG_Zp7ALa-40" edge="1">
          <mxGeometry width="50" height="50" relative="1" as="geometry">
            <mxPoint x="690" y="430" as="sourcePoint" />
            <mxPoint x="880" y="460" as="targetPoint" />
          </mxGeometry>
        </mxCell>
        <mxCell id="GXxP0L6E-gwaG_Zp7ALa-176" value="" style="endArrow=none;dashed=1;html=1;rounded=0;edgeStyle=orthogonalEdgeStyle;entryX=0.5;entryY=1;entryDx=0;entryDy=0;exitX=0.5;exitY=0;exitDx=0;exitDy=0;" parent="1" source="GXxP0L6E-gwaG_Zp7ALa-69" target="GXxP0L6E-gwaG_Zp7ALa-59" edge="1">
          <mxGeometry width="50" height="50" relative="1" as="geometry">
            <mxPoint x="930" y="440" as="sourcePoint" />
            <mxPoint x="980" y="390" as="targetPoint" />
          </mxGeometry>
        </mxCell>
        <mxCell id="GXxP0L6E-gwaG_Zp7ALa-177" value="" style="endArrow=none;dashed=1;html=1;rounded=0;edgeStyle=orthogonalEdgeStyle;exitX=0.5;exitY=0;exitDx=0;exitDy=0;entryX=0;entryY=0.5;entryDx=0;entryDy=0;" parent="1" source="GXxP0L6E-gwaG_Zp7ALa-77" target="GXxP0L6E-gwaG_Zp7ALa-69" edge="1">
          <mxGeometry width="50" height="50" relative="1" as="geometry">
            <mxPoint x="770" y="400" as="sourcePoint" />
            <mxPoint x="820" y="350" as="targetPoint" />
            <Array as="points">
              <mxPoint x="608" y="440" />
              <mxPoint x="880" y="440" />
              <mxPoint x="880" y="520" />
            </Array>
          </mxGeometry>
        </mxCell>
        <mxCell id="GXxP0L6E-gwaG_Zp7ALa-178" value="" style="endArrow=none;dashed=1;html=1;rounded=0;exitX=0.5;exitY=1;exitDx=0;exitDy=0;entryX=0.5;entryY=0;entryDx=0;entryDy=0;" parent="1" source="GXxP0L6E-gwaG_Zp7ALa-77" target="GXxP0L6E-gwaG_Zp7ALa-81" edge="1">
          <mxGeometry width="50" height="50" relative="1" as="geometry">
            <mxPoint x="560" y="410" as="sourcePoint" />
            <mxPoint x="610" y="360" as="targetPoint" />
          </mxGeometry>
        </mxCell>
        <mxCell id="GXxP0L6E-gwaG_Zp7ALa-179" value="" style="endArrow=none;dashed=1;html=1;rounded=0;edgeStyle=orthogonalEdgeStyle;entryX=0;entryY=1;entryDx=0;entryDy=0;exitX=0.448;exitY=-0.412;exitDx=0;exitDy=0;exitPerimeter=0;" parent="1" source="GXxP0L6E-gwaG_Zp7ALa-88" target="GXxP0L6E-gwaG_Zp7ALa-77" edge="1">
          <mxGeometry width="50" height="50" relative="1" as="geometry">
            <mxPoint x="510" y="570" as="sourcePoint" />
            <mxPoint x="610" y="350" as="targetPoint" />
            <Array as="points">
              <mxPoint x="510" y="576" />
              <mxPoint x="510" y="540" />
              <mxPoint x="594" y="540" />
            </Array>
          </mxGeometry>
        </mxCell>
        <mxCell id="GXxP0L6E-gwaG_Zp7ALa-180" value="" style="endArrow=none;dashed=1;html=1;rounded=0;edgeStyle=orthogonalEdgeStyle;entryX=0.5;entryY=1;entryDx=0;entryDy=0;exitX=0.5;exitY=1;exitDx=0;exitDy=0;" parent="1" source="GXxP0L6E-gwaG_Zp7ALa-81" target="GXxP0L6E-gwaG_Zp7ALa-53" edge="1">
          <mxGeometry width="50" height="50" relative="1" as="geometry">
            <mxPoint x="750" y="560" as="sourcePoint" />
            <mxPoint x="800" y="510" as="targetPoint" />
            <Array as="points">
              <mxPoint x="625" y="550" />
              <mxPoint x="846" y="550" />
            </Array>
          </mxGeometry>
        </mxCell>
        <mxCell id="GXxP0L6E-gwaG_Zp7ALa-181" value="" style="endArrow=none;dashed=1;html=1;rounded=0;edgeStyle=orthogonalEdgeStyle;entryX=0.5;entryY=1;entryDx=0;entryDy=0;exitX=0.75;exitY=0;exitDx=0;exitDy=0;" parent="1" source="GXxP0L6E-gwaG_Zp7ALa-107" target="GXxP0L6E-gwaG_Zp7ALa-83" edge="1">
          <mxGeometry width="50" height="50" relative="1" as="geometry">
            <mxPoint x="710" y="560" as="sourcePoint" />
            <mxPoint x="760" y="510" as="targetPoint" />
            <Array as="points">
              <mxPoint x="921" y="640" />
              <mxPoint x="722" y="640" />
            </Array>
          </mxGeometry>
        </mxCell>
        <mxCell id="kWfnJFYw0aTXCy6EugjK-16" value="Text" style="edgeLabel;html=1;align=center;verticalAlign=middle;resizable=0;points=[];" vertex="1" connectable="0" parent="GXxP0L6E-gwaG_Zp7ALa-181">
          <mxGeometry x="-0.358" y="-14" relative="1" as="geometry">
            <mxPoint x="-2" as="offset" />
          </mxGeometry>
        </mxCell>
        <mxCell id="GXxP0L6E-gwaG_Zp7ALa-182" value="" style="endArrow=none;dashed=1;html=1;rounded=0;entryX=1;entryY=1;entryDx=0;entryDy=0;edgeStyle=orthogonalEdgeStyle;exitX=0.5;exitY=0;exitDx=0;exitDy=0;" parent="1" source="GXxP0L6E-gwaG_Zp7ALa-100" target="GXxP0L6E-gwaG_Zp7ALa-83" edge="1">
          <mxGeometry width="50" height="50" relative="1" as="geometry">
            <mxPoint x="700" y="630" as="sourcePoint" />
            <mxPoint x="750" y="580" as="targetPoint" />
            <Array as="points">
              <mxPoint x="748" y="710" />
              <mxPoint x="800" y="710" />
              <mxPoint x="800" y="625" />
              <mxPoint x="736" y="625" />
            </Array>
          </mxGeometry>
        </mxCell>
        <mxCell id="GXxP0L6E-gwaG_Zp7ALa-183" value="" style="endArrow=none;dashed=1;html=1;rounded=0;entryX=0;entryY=1;entryDx=0;entryDy=0;exitX=0.5;exitY=0;exitDx=0;exitDy=0;" parent="1" source="GXxP0L6E-gwaG_Zp7ALa-94" target="GXxP0L6E-gwaG_Zp7ALa-83" edge="1">
          <mxGeometry width="50" height="50" relative="1" as="geometry">
            <mxPoint x="680" y="630" as="sourcePoint" />
            <mxPoint x="730" y="580" as="targetPoint" />
          </mxGeometry>
        </mxCell>
        <mxCell id="kWfnJFYw0aTXCy6EugjK-1" value="" style="endArrow=none;dashed=1;html=1;rounded=0;edgeStyle=orthogonalEdgeStyle;entryX=0.5;entryY=1;entryDx=0;entryDy=0;exitX=0.5;exitY=0;exitDx=0;exitDy=0;" edge="1" parent="1" source="GXxP0L6E-gwaG_Zp7ALa-101" target="GXxP0L6E-gwaG_Zp7ALa-71">
          <mxGeometry width="50" height="50" relative="1" as="geometry">
            <mxPoint x="880" y="610" as="sourcePoint" />
            <mxPoint x="1020" y="560" as="targetPoint" />
            <Array as="points">
              <mxPoint x="748" y="670" />
              <mxPoint x="1011" y="670" />
            </Array>
          </mxGeometry>
        </mxCell>
        <mxCell id="kWfnJFYw0aTXCy6EugjK-2" value="" style="endArrow=none;dashed=1;html=1;rounded=0;exitX=0.75;exitY=0;exitDx=0;exitDy=0;" edge="1" parent="1" source="GXxP0L6E-gwaG_Zp7ALa-107">
          <mxGeometry width="50" height="50" relative="1" as="geometry">
            <mxPoint x="890" y="510" as="sourcePoint" />
            <mxPoint x="1011" y="530" as="targetPoint" />
          </mxGeometry>
        </mxCell>
        <mxCell id="kWfnJFYw0aTXCy6EugjK-3" value="" style="endArrow=none;dashed=1;html=1;rounded=0;edgeStyle=orthogonalEdgeStyle;entryX=0;entryY=1;entryDx=0;entryDy=0;exitX=0.5;exitY=0;exitDx=0;exitDy=0;" edge="1" parent="1" source="GXxP0L6E-gwaG_Zp7ALa-95" target="GXxP0L6E-gwaG_Zp7ALa-71">
          <mxGeometry width="50" height="50" relative="1" as="geometry">
            <mxPoint x="890" y="620" as="sourcePoint" />
            <mxPoint x="940" y="570" as="targetPoint" />
            <Array as="points">
              <mxPoint x="625" y="610" />
              <mxPoint x="997" y="610" />
            </Array>
          </mxGeometry>
        </mxCell>
        <mxCell id="kWfnJFYw0aTXCy6EugjK-4" value="" style="endArrow=none;dashed=1;html=1;rounded=0;entryX=0.5;entryY=0;entryDx=0;entryDy=0;exitX=0.5;exitY=1;exitDx=0;exitDy=0;" edge="1" parent="1" source="GXxP0L6E-gwaG_Zp7ALa-89" target="GXxP0L6E-gwaG_Zp7ALa-95">
          <mxGeometry width="50" height="50" relative="1" as="geometry">
            <mxPoint x="608" y="600" as="sourcePoint" />
            <mxPoint x="640" y="620" as="targetPoint" />
          </mxGeometry>
        </mxCell>
        <mxCell id="kWfnJFYw0aTXCy6EugjK-5" value="" style="endArrow=none;dashed=1;html=1;rounded=0;edgeStyle=orthogonalEdgeStyle;exitX=0.5;exitY=0;exitDx=0;exitDy=0;" edge="1" parent="1" source="GXxP0L6E-gwaG_Zp7ALa-89">
          <mxGeometry width="50" height="50" relative="1" as="geometry">
            <mxPoint x="580" y="650" as="sourcePoint" />
            <mxPoint x="913" y="780" as="targetPoint" />
            <Array as="points">
              <mxPoint x="608" y="565" />
              <mxPoint x="890" y="565" />
              <mxPoint x="890" y="760" />
              <mxPoint x="913" y="760" />
            </Array>
          </mxGeometry>
        </mxCell>
        <mxCell id="kWfnJFYw0aTXCy6EugjK-6" value="" style="endArrow=none;dashed=1;html=1;rounded=0;edgeStyle=orthogonalEdgeStyle;exitX=0.25;exitY=0;exitDx=0;exitDy=0;entryX=0.5;entryY=0;entryDx=0;entryDy=0;" edge="1" parent="1" source="GXxP0L6E-gwaG_Zp7ALa-101" target="GXxP0L6E-gwaG_Zp7ALa-89">
          <mxGeometry width="50" height="50" relative="1" as="geometry">
            <mxPoint x="780" y="660" as="sourcePoint" />
            <mxPoint x="610" y="560" as="targetPoint" />
            <Array as="points">
              <mxPoint x="741" y="560" />
              <mxPoint x="608" y="560" />
            </Array>
          </mxGeometry>
        </mxCell>
        <mxCell id="kWfnJFYw0aTXCy6EugjK-8" value="" style="endArrow=none;dashed=1;html=1;rounded=0;edgeStyle=orthogonalEdgeStyle;exitX=0;exitY=1;exitDx=0;exitDy=0;entryX=0.5;entryY=0;entryDx=0;entryDy=0;" edge="1" parent="1" source="GXxP0L6E-gwaG_Zp7ALa-96" target="GXxP0L6E-gwaG_Zp7ALa-139">
          <mxGeometry width="50" height="50" relative="1" as="geometry">
            <mxPoint x="740" y="640" as="sourcePoint" />
            <mxPoint x="790" y="590" as="targetPoint" />
            <Array as="points">
              <mxPoint x="707" y="670" />
              <mxPoint x="690" y="670" />
              <mxPoint x="690" y="746" />
              <mxPoint x="748" y="746" />
            </Array>
          </mxGeometry>
        </mxCell>
        <mxCell id="kWfnJFYw0aTXCy6EugjK-9" value="" style="endArrow=none;dashed=1;html=1;rounded=0;edgeStyle=orthogonalEdgeStyle;entryX=0;entryY=0.5;entryDx=0;entryDy=0;" edge="1" parent="1" target="GXxP0L6E-gwaG_Zp7ALa-106">
          <mxGeometry width="50" height="50" relative="1" as="geometry">
            <mxPoint x="740" y="660" as="sourcePoint" />
            <mxPoint x="890" y="790" as="targetPoint" />
            <Array as="points">
              <mxPoint x="740" y="661" />
              <mxPoint x="880" y="661" />
              <mxPoint x="880" y="790" />
            </Array>
          </mxGeometry>
        </mxCell>
        <mxCell id="kWfnJFYw0aTXCy6EugjK-10" value="" style="endArrow=none;dashed=1;html=1;rounded=0;edgeStyle=orthogonalEdgeStyle;entryX=0.5;entryY=1;entryDx=0;entryDy=0;exitX=0.5;exitY=0;exitDx=0;exitDy=0;" edge="1" parent="1" source="GXxP0L6E-gwaG_Zp7ALa-126" target="GXxP0L6E-gwaG_Zp7ALa-96">
          <mxGeometry width="50" height="50" relative="1" as="geometry">
            <mxPoint x="650" y="770" as="sourcePoint" />
            <mxPoint x="880" y="640" as="targetPoint" />
            <Array as="points">
              <mxPoint x="510" y="770" />
              <mxPoint x="721" y="770" />
            </Array>
          </mxGeometry>
        </mxCell>
        <mxCell id="kWfnJFYw0aTXCy6EugjK-12" value="" style="endArrow=none;dashed=1;html=1;rounded=0;exitX=0.5;exitY=0;exitDx=0;exitDy=0;entryX=0.5;entryY=1;entryDx=0;entryDy=0;" edge="1" parent="1" source="GXxP0L6E-gwaG_Zp7ALa-139" target="GXxP0L6E-gwaG_Zp7ALa-102">
          <mxGeometry width="50" height="50" relative="1" as="geometry">
            <mxPoint x="780" y="730" as="sourcePoint" />
            <mxPoint x="830" y="680" as="targetPoint" />
          </mxGeometry>
        </mxCell>
        <mxCell id="kWfnJFYw0aTXCy6EugjK-13" value="" style="endArrow=none;dashed=1;html=1;rounded=0;edgeStyle=orthogonalEdgeStyle;entryX=0.5;entryY=1;entryDx=0;entryDy=0;exitX=0.5;exitY=1;exitDx=0;exitDy=0;" edge="1" parent="1" source="GXxP0L6E-gwaG_Zp7ALa-138" target="GXxP0L6E-gwaG_Zp7ALa-108">
          <mxGeometry width="50" height="50" relative="1" as="geometry">
            <mxPoint x="750" y="850" as="sourcePoint" />
            <mxPoint x="900" y="730" as="targetPoint" />
            <Array as="points">
              <mxPoint x="748" y="860" />
              <mxPoint x="1010" y="860" />
            </Array>
          </mxGeometry>
        </mxCell>
        <mxCell id="kWfnJFYw0aTXCy6EugjK-14" value="" style="endArrow=none;dashed=1;html=1;rounded=0;edgeStyle=orthogonalEdgeStyle;entryX=0;entryY=0.5;entryDx=0;entryDy=0;exitX=1;exitY=0.5;exitDx=0;exitDy=0;" edge="1" parent="1" source="GXxP0L6E-gwaG_Zp7ALa-128" target="GXxP0L6E-gwaG_Zp7ALa-138">
          <mxGeometry width="50" height="50" relative="1" as="geometry">
            <mxPoint x="590" y="860" as="sourcePoint" />
            <mxPoint x="640" y="810" as="targetPoint" />
          </mxGeometry>
        </mxCell>
        <mxCell id="kWfnJFYw0aTXCy6EugjK-15" value="" style="endArrow=none;dashed=1;html=1;rounded=0;edgeStyle=orthogonalEdgeStyle;exitX=1;exitY=0.5;exitDx=0;exitDy=0;entryX=1;entryY=0;entryDx=0;entryDy=0;" edge="1" parent="1" source="GXxP0L6E-gwaG_Zp7ALa-160" target="GXxP0L6E-gwaG_Zp7ALa-57">
          <mxGeometry width="50" height="50" relative="1" as="geometry">
            <mxPoint x="750" y="1060" as="sourcePoint" />
            <mxPoint x="1141.3333129882812" y="430" as="targetPoint" />
            <Array as="points">
              <mxPoint x="1120" y="930" />
              <mxPoint x="1120" y="370" />
              <mxPoint x="929" y="370" />
            </Array>
          </mxGeometry>
        </mxCell>
      </root>
    </mxGraphModel>
  </diagram>
</mxfile>
